<?xml version="1.0" standalone="no"?><!DOCTYPE svg PUBLIC "-//W3C//DTD SVG 1.1//EN" "http://www.w3.org/Graphics/SVG/1.1/DTD/svg11.dtd"><svg t="1655258843078" class="icon" viewBox="0 0 1024 1024" version="1.1" xmlns="http://www.w3.org/2000/svg" p-id="4039" xmlns:xlink="http://www.w3.org/1999/xlink" width="200" height="200"><defs><style type="text/css">@font-face { font-family: feedback-iconfont; src: url("//at.alicdn.com/t/font_1031158_u69w8yhxdu.woff2?t=1630033759944") format("woff2"), url("//at.alicdn.com/t/font_1031158_u69w8yhxdu.woff?t=1630033759944") format("woff"), url("//at.alicdn.com/t/font_1031158_u69w8yhxdu.ttf?t=1630033759944") format("truetype"); }
</style></defs><path d="M498.688 563.2c8.192 7.168 19.456 7.168 27.648 0l289.792-268.288c5.12-10.24 4.096-26.624-16.384-26.624l-573.44 1.024c-15.36 0-27.648 14.336-16.384 26.624L498.688 563.2zM819.2 409.6c0-13.312-16.384-20.48-25.6-11.264l-225.28 208.896c-15.36 14.336-34.816 21.504-55.296 21.504s-39.936-7.168-55.296-21.504L231.424 398.336c-10.24-9.216-25.6-2.048-25.6 11.264v266.24c0 33.792 27.648 61.44 61.44 61.44h491.52c33.792 0 61.44-27.648 61.44-61.44-1.024 0-1.024-184.32-1.024-266.24z" p-id="4040" fill="#515151"></path></svg>