<?xml version="1.0" standalone="no"?><!DOCTYPE svg PUBLIC "-//W3C//DTD SVG 1.1//EN" "http://www.w3.org/Graphics/SVG/1.1/DTD/svg11.dtd"><svg t="1655121741534" class="icon" viewBox="0 0 1024 1024" version="1.1" xmlns="http://www.w3.org/2000/svg" p-id="34632" xmlns:xlink="http://www.w3.org/1999/xlink" width="200" height="200"><defs><style type="text/css">@font-face { font-family: feedback-iconfont; src: url("//at.alicdn.com/t/font_1031158_u69w8yhxdu.woff2?t=1630033759944") format("woff2"), url("//at.alicdn.com/t/font_1031158_u69w8yhxdu.woff?t=1630033759944") format("woff"), url("//at.alicdn.com/t/font_1031158_u69w8yhxdu.ttf?t=1630033759944") format("truetype"); }
</style></defs><path d="M650.922667 143.189333a190.762667 190.762667 0 0 1 273.706666 0c73.088 74.581333 75.52 193.962667 7.338667 271.530667l-7.338667 7.850667-427.648 436.522666a262.314667 262.314667 0 0 1-376.362666 0C19.584 755.968 16.768 590.549333 112.213333 483.968l8.405334-9.002667 359.253333-366.677333a47.701333 47.701333 0 0 1 68.437333 0c17.408 17.792 18.773333 45.781333 4.010667 65.194667l-4.053333 4.650666-359.253334 366.677334a175.36 175.36 0 0 0 0 244.48 166.869333 166.869333 0 0 0 232.277334 6.954666l7.253333-6.997333 427.690667-436.48a100.266667 100.266667 0 0 0 0-139.733333 95.36 95.36 0 0 0-130.730667-5.76l-6.144 5.76L291.669333 649.557333a25.045333 25.045333 0 0 0 0 34.944c8.405333 8.533333 21.461333 9.514667 30.890667 2.858667l3.328-2.858667 359.253333-366.677333a47.701333 47.701333 0 0 1 68.437334 0c17.450667 17.792 18.773333 45.781333 4.010666 65.194667l-4.010666 4.650666-359.253334 366.677334a119.253333 119.253333 0 0 1-171.093333 0 125.354667 125.354667 0 0 1-5.888-168.149334l5.930667-6.485333 427.648-436.48z" p-id="34633" fill="#e6e6e6"></path></svg>