<?xml version="1.0" standalone="no"?><!DOCTYPE svg PUBLIC "-//W3C//DTD SVG 1.1//EN" "http://www.w3.org/Graphics/SVG/1.1/DTD/svg11.dtd"><svg t="1655121351968" class="icon" viewBox="0 0 1024 1024" version="1.1" xmlns="http://www.w3.org/2000/svg" p-id="9081" xmlns:xlink="http://www.w3.org/1999/xlink" width="200" height="200"><defs><style type="text/css">@font-face { font-family: feedback-iconfont; src: url("//at.alicdn.com/t/font_1031158_u69w8yhxdu.woff2?t=1630033759944") format("woff2"), url("//at.alicdn.com/t/font_1031158_u69w8yhxdu.woff?t=1630033759944") format("woff"), url("//at.alicdn.com/t/font_1031158_u69w8yhxdu.ttf?t=1630033759944") format("truetype"); }
</style></defs><path d="M661.306 682.977c-12.42 0-24.55-6.252-31.54-17.604-10.716-17.4-5.297-40.191 12.104-50.907 74.011-45.578 118.196-124.607 118.196-211.401C760.065 266.282 648.783 155 512 155S263.935 266.282 263.935 403.065c0 86.794 44.186 165.822 118.196 211.401 17.4 10.715 22.819 33.507 12.104 50.907-10.717 17.399-33.509 22.818-50.906 12.103-45.975-28.312-84.42-68.048-111.181-114.911-27.616-48.362-42.213-103.516-42.213-159.5 0-43.462 8.521-85.644 25.324-125.374 16.224-38.356 39.44-72.795 69.007-102.361 29.565-29.566 64.005-52.783 102.36-69.006C426.355 89.52 468.538 81 512 81s85.645 8.521 125.374 25.325c38.355 16.223 72.795 39.44 102.36 69.006 29.566 29.566 52.783 64.005 69.007 102.361 16.804 39.729 25.324 81.911 25.324 125.374 0 55.984-14.597 111.139-42.213 159.5-26.761 46.863-65.206 86.599-111.181 114.911a36.837 36.837 0 0 1-19.365 5.5z" p-id="9082" fill="#e6e6e6"></path><path d="M661.269 825.304H362.731c-20.435 0-37-16.565-37-37V648.13c0-20.435 16.565-37 37-37s37 16.565 37 37v103.174h224.537V648.13c0-20.435 16.565-37 37-37s37 16.565 37 37v140.174c0.001 20.435-16.565 37-36.999 37zM619.565 955.304h-215.13c-20.435 0-37-16.565-37-37s16.565-37 37-37h215.131c20.435 0 37 16.565 37 37s-16.566 37-37.001 37z" p-id="9083" fill="#e6e6e6"></path></svg>